<svg width="100" height="100" viewBox="0 0 100 100" fill="none" xmlns="http://www.w3.org/2000/svg">
<path d="M78.7487 62.625C69.5404 62.625 62.082 70.0833 62.082 79.2917C62.082 88.5 69.5404 95.9583 78.7487 95.9583C87.957 95.9583 95.4154 88.5 95.4154 79.2917C95.4154 70.0833 87.957 62.625 78.7487 62.625ZM85.4154 86.1667C84.7904 86.7917 83.9987 87.0833 83.207 87.0833C82.4154 87.0833 81.6237 86.7917 80.9987 86.1667L78.7904 83.9583L76.4987 86.25C75.8737 86.875 75.082 87.1667 74.2904 87.1667C73.4987 87.1667 72.707 86.875 72.082 86.25C70.8737 85.0417 70.8737 83.0417 72.082 81.8333L74.3737 79.5417L72.1654 77.3333C70.957 76.125 70.957 74.125 72.1654 72.9167C73.3737 71.7083 75.3737 71.7083 76.582 72.9167L78.7904 75.125L80.8737 73.0417C82.082 71.8333 84.082 71.8333 85.2904 73.0417C86.4987 74.25 86.4987 76.25 85.2904 77.4583L83.207 79.5417L85.4154 81.75C86.6237 82.9583 86.6237 84.9583 85.4154 86.1667Z" fill="#FF0000"/>
<path d="M91.6654 31.4596V33.3346C91.6654 35.6263 89.7904 37.5013 87.4987 37.5013H12.4987C10.207 37.5013 8.33203 35.6263 8.33203 33.3346V31.418C8.33203 21.8763 16.0404 14.168 25.582 14.168H74.3737C83.9154 14.168 91.6654 21.918 91.6654 31.4596Z" fill="#322929"/>
<path d="M8.33203 47.9154V68.582C8.33203 78.1237 16.0404 85.832 25.582 85.832H51.6654C54.082 85.832 56.1654 83.7904 55.957 81.3737C55.3737 74.9987 57.4154 68.082 63.082 62.582C65.4154 60.2904 68.2904 58.5404 71.4154 57.5404C76.6237 55.8737 81.6654 56.082 86.1237 57.582C88.832 58.4987 91.6654 56.5404 91.6654 53.6654V47.8737C91.6654 45.582 89.7904 43.707 87.4987 43.707H12.4987C10.207 43.7487 8.33203 45.6237 8.33203 47.9154ZM33.332 71.8737H24.9987C23.2904 71.8737 21.8737 70.457 21.8737 68.7487C21.8737 67.0404 23.2904 65.6237 24.9987 65.6237H33.332C35.0404 65.6237 36.457 67.0404 36.457 68.7487C36.457 70.457 35.0404 71.8737 33.332 71.8737Z" fill="#322929"/>
</svg>
