<svg width="31" height="31" viewBox="0 0 31 31" fill="none" xmlns="http://www.w3.org/2000/svg">
<path d="M23.3016 17.502C22.7591 18.0316 22.4491 18.7937 22.5266 19.6074C22.6429 21.0024 23.9216 22.0229 25.3166 22.0229H27.7708V23.5599C27.7708 26.2337 25.5879 28.4166 22.9141 28.4166H8.08581C5.41206 28.4166 3.22914 26.2337 3.22914 23.5599V14.8671C3.22914 12.1933 5.41206 10.0104 8.08581 10.0104H22.9141C25.5879 10.0104 27.7708 12.1933 27.7708 14.8671V16.7271H25.1616C24.4383 16.7271 23.7796 17.0112 23.3016 17.502Z" stroke="white" stroke-width="1.9375" stroke-linecap="round" stroke-linejoin="round"/>
<path d="M3.22916 16.0296V10.1267C3.22916 8.58963 4.17208 7.2204 5.60583 6.6779L15.8617 2.8029C17.4633 2.19582 19.1812 3.38419 19.1812 5.10211V10.0104" stroke="white" stroke-width="1.9375" stroke-linecap="round" stroke-linejoin="round"/>
<path d="M29.1385 18.0447V20.7057C29.1385 21.4161 28.5701 21.9973 27.8468 22.0231H25.3151C23.9201 22.0231 22.6414 21.0027 22.5251 19.6077C22.4476 18.7939 22.7576 18.0318 23.3001 17.5023C23.778 17.0114 24.4368 16.7273 25.1601 16.7273H27.8468C28.5701 16.7531 29.1385 17.3343 29.1385 18.0447Z" stroke="#48CAE4" stroke-width="1.9375" stroke-linecap="round" stroke-linejoin="round"/>
<path d="M9.04166 15.5H18.0833" stroke="white" stroke-width="1.9375" stroke-linecap="round" stroke-linejoin="round"/>
</svg>
