<svg width="46" height="46" viewBox="0 0 46 46" fill="none" xmlns="http://www.w3.org/2000/svg">
<path d="M15.7433 30.0044C14.5101 28.7712 12.9357 28.0628 11.3089 27.8791C9.14423 27.6298 6.90082 28.3514 5.24777 30.0044C4.26381 30.9884 3.60785 32.1954 3.3061 33.4679C2.68949 35.895 3.33233 38.5845 5.24777 40.5C6.57283 41.825 8.26523 42.5466 10.0101 42.6384C10.7579 42.704 11.532 42.6384 12.2798 42.4416C13.5524 42.1399 14.7593 41.4839 15.7433 40.5C18.6427 37.6006 18.6427 32.9038 15.7433 30.0044ZM9.13109 32.4709C9.13109 31.71 9.76081 31.0802 10.5217 31.0802C11.2958 31.0934 11.9124 31.71 11.9255 32.484L11.9124 33.8615L13.2375 33.8484C14.0116 33.8615 14.6282 34.4781 14.6413 35.2522C14.6282 36.0262 14.0116 36.6428 13.2375 36.656L11.9124 36.6428L11.9255 38.0204C11.9124 38.7944 11.2958 39.4111 10.5218 39.4242C10.1413 39.4111 9.80024 39.2536 9.55097 39.0043C9.3017 38.755 9.14422 38.414 9.1311 38.0335L9.13114 36.6428L7.68801 36.6428C7.29443 36.6428 6.95328 36.4854 6.70401 36.2362C6.45475 35.9869 6.29736 35.6457 6.29736 35.2522C6.29736 34.4912 6.92709 33.8615 7.68801 33.8615L9.13113 33.8615L9.13109 32.4709Z" fill="#0096C7"/>
<path opacity="0.4" d="M37.3613 24.027H41.1091V21.3553C41.1091 17.5147 37.9736 14.3791 34.133 14.3791H12.8334C8.99275 14.3791 5.85718 17.5147 5.85718 21.3553V29.4632C7.13738 28.4428 8.75155 27.8305 10.4956 27.8305C14.596 27.8305 17.9171 31.1516 17.9171 35.252C17.9171 36.6435 17.5274 37.9608 16.8409 39.074C16.4513 39.7419 15.9504 40.3357 15.3752 40.8181H34.133C37.9736 40.8181 41.1091 37.6825 41.1091 33.8419V31.634H37.5839C35.5801 31.634 33.7433 30.1682 33.5764 28.1644C33.465 26.9956 33.9103 25.9009 34.6896 25.1402C35.3761 24.4352 36.3223 24.027 37.3613 24.027Z" fill="#0096C7"/>
<path d="M28.771 7.32888V14.3792H12.8334C8.99275 14.3792 5.85718 17.5148 5.85718 21.3554V14.5463C5.85718 12.3384 7.21159 10.3716 9.27105 9.59237L24.0027 4.02627C26.3033 3.1728 28.771 4.86124 28.771 7.32888Z" fill="#0096C7"/>
<path d="M43.0772 25.9198V29.742C43.0772 30.7624 42.2608 31.5973 41.2218 31.6344H37.5853C35.5815 31.6344 33.7447 30.1686 33.5777 28.1648C33.4664 26.996 33.9117 25.9013 34.6909 25.1406C35.3774 24.4355 36.3236 24.0274 37.3627 24.0274H41.2218C42.2608 24.0645 43.0772 24.8993 43.0772 25.9198Z" fill="#0096C7"/>
<path d="M27.1938 23.6559H14.2062C13.4455 23.6559 12.8147 23.0251 12.8147 22.2644C12.8147 21.5037 13.4455 20.8729 14.2062 20.8729H27.1938C27.9545 20.8729 28.5853 21.5037 28.5853 22.2644C28.5853 23.0251 27.9545 23.6559 27.1938 23.6559Z" fill="#0096C7"/>
</svg>
