<svg width="36" height="36" viewBox="0 0 36 36" fill="none" xmlns="http://www.w3.org/2000/svg">
<path fill-rule="evenodd" clip-rule="evenodd" d="M25.5297 1.81213H10.3887C5.1177 1.81213 1.81195 5.54663 1.81195 10.8316V25.0871C1.81195 30.3721 5.1037 34.1066 10.3887 34.1066H25.5209C30.8147 34.1066 34.1047 30.3721 34.1047 25.0871V10.8316C34.1117 5.54663 30.8199 1.81213 25.5297 1.81213Z" stroke="#F8561A" stroke-width="2.625" stroke-linecap="round" stroke-linejoin="round"/>
<path fill-rule="evenodd" clip-rule="evenodd" d="M15.7304 12.3737C15.7304 14.1587 14.2849 15.6042 12.4999 15.6042C10.7167 15.6042 9.26941 14.1587 9.26941 12.3737C9.26941 10.5887 10.7167 9.14325 12.4999 9.14325C14.2832 9.145 15.7287 10.5905 15.7304 12.3737Z" stroke="#F8561A" stroke-width="2.625" stroke-linecap="round" stroke-linejoin="round"/>
<path d="M34.1122 23.1642C32.497 21.5017 29.3907 18.1435 26.0132 18.1435C22.634 18.1435 20.6862 25.5512 17.4365 25.5512C14.1867 25.5512 11.2345 22.2017 8.6305 24.349C6.0265 26.4945 3.5625 30.8817 3.5625 30.8817" stroke="#F8561A" stroke-width="2.625" stroke-linecap="round" stroke-linejoin="round"/>
</svg>
