<svg width="29" height="29" viewBox="0 0 29 29" fill="none" xmlns="http://www.w3.org/2000/svg">
<path d="M21.7982 10.07H20.636V7.74549C20.636 4.53759 18.0324 1.93408 14.8246 1.93408C11.6167 1.93408 9.01315 4.53759 9.01315 7.74549V10.07H7.85087C6.57236 10.07 5.52631 11.1161 5.52631 12.3946V24.0174C5.52631 25.2959 6.57236 26.342 7.85087 26.342H21.7982C23.0767 26.342 24.1228 25.2959 24.1228 24.0174V12.3946C24.1228 11.1161 23.0767 10.07 21.7982 10.07ZM11.3377 7.74549C11.3377 5.8161 12.8952 4.25864 14.8246 4.25864C16.7539 4.25864 18.3114 5.8161 18.3114 7.74549V10.07H11.3377V7.74549ZM21.7982 24.0174H7.85087V12.3946H21.7982V24.0174ZM14.8246 20.5306C16.1031 20.5306 17.1491 19.4845 17.1491 18.206C17.1491 16.9275 16.1031 15.8815 14.8246 15.8815C13.546 15.8815 12.5 16.9275 12.5 18.206C12.5 19.4845 13.546 20.5306 14.8246 20.5306Z" fill="#544C4C"/>
</svg>
