<svg width="31" height="24" viewBox="0 0 31 24" fill="none" xmlns="http://www.w3.org/2000/svg">
<path d="M16.56 2C13.1043 2 10.3029 4.23858 10.3029 7C10.3029 7.55228 10.8632 8 11.5543 8C12.2455 8 12.8057 7.55228 12.8057 7C12.8057 5.34315 14.4866 4 16.56 4H21.5657C23.6392 4 25.32 5.34315 25.32 7V17C25.32 18.6569 23.6392 20 21.5657 20H16.56C14.4866 20 12.8057 18.6569 12.8057 17C12.8057 16.4477 12.2455 16 11.5543 16C10.8632 16 10.3029 16.4477 10.3029 17C10.3029 19.7614 13.1043 22 16.56 22H21.5657C25.0215 22 27.8229 19.7614 27.8229 17V7C27.8229 4.23858 25.0215 2 21.5657 2H16.56Z" fill="white"/>
<path d="M17.8115 11C18.5026 11 19.0629 11.4477 19.0629 12C19.0629 12.5523 18.5026 13 17.8115 13V11Z" fill="white"/>
<path d="M7.44703 11C7.55843 10.8902 7.66517 10.7837 7.76614 10.682C8.07335 10.3723 8.33345 10.1004 8.5171 9.90549C8.60901 9.80795 8.682 9.72946 8.7324 9.67492L8.79068 9.61162L8.8063 9.59454L8.81182 9.58848C8.81188 9.58842 8.81246 9.58778 7.80003 9L8.81182 9.58848C9.21807 9.14167 9.09475 8.51561 8.5356 8.19098C7.97648 7.86637 7.19393 7.9654 6.78767 8.41215L6.78414 8.41602L6.77133 8.43002L6.71907 8.48679C6.67283 8.53682 6.60448 8.61033 6.51763 8.7025C6.34377 8.88702 6.09662 9.14542 5.80496 9.43937C5.21523 10.0337 4.46833 10.7481 3.78657 11.2929L2.90167 12L3.78657 12.7071C4.46833 13.2519 5.21523 13.9663 5.80496 14.5606C6.09662 14.8546 6.34377 15.113 6.51763 15.2975C6.60448 15.3897 6.67283 15.4632 6.71907 15.5132L6.77133 15.57L6.78414 15.584L6.78706 15.5872C7.19332 16.0339 7.97648 16.1336 8.5356 15.809C9.09475 15.4844 9.2187 14.859 8.81246 14.4122L7.80003 15C8.81246 14.4122 8.81251 14.4123 8.81246 14.4122L8.8063 14.4055L8.79068 14.3884L8.7324 14.3251C8.682 14.2705 8.60901 14.1921 8.5171 14.0945C8.33345 13.8996 8.07335 13.6277 7.76614 13.318C7.66517 13.2163 7.55843 13.1098 7.44703 13H17.8115V11H7.44703Z" fill="white"/>
</svg>
