<svg width="29" height="28" viewBox="0 0 29 28" fill="none" xmlns="http://www.w3.org/2000/svg">
<path d="M5.52631 21.0087C5.52631 19.7757 6.01612 18.5932 6.888 17.7213C7.75988 16.8494 8.9424 16.3596 10.1754 16.3596H19.4737C20.7067 16.3596 21.8892 16.8494 22.7611 17.7213C23.633 18.5932 24.1228 19.7757 24.1228 21.0087C24.1228 21.6253 23.8779 22.2165 23.4419 22.6525C23.006 23.0884 22.4147 23.3333 21.7982 23.3333H7.85087C7.23436 23.3333 6.64309 23.0884 6.20715 22.6525C5.77121 22.2165 5.52631 21.6253 5.52631 21.0087Z" stroke="#544C4C" stroke-width="1.85965" stroke-linejoin="round"/>
<path d="M14.8245 11.7105C16.7503 11.7105 18.3114 10.1494 18.3114 8.22366C18.3114 6.29793 16.7503 4.73682 14.8245 4.73682C12.8988 4.73682 11.3377 6.29793 11.3377 8.22366C11.3377 10.1494 12.8988 11.7105 14.8245 11.7105Z" stroke="#544C4C" stroke-width="1.85965"/>
</svg>
