<svg width="29" height="29" viewBox="0 0 29 29" fill="none" xmlns="http://www.w3.org/2000/svg">
<path d="M13.5753 21.1274H15.8926V18.8101H13.5753V21.1274ZM14.7339 2.58936C13.2124 2.58936 11.7058 2.88904 10.3001 3.47131C8.89435 4.05357 7.61709 4.90701 6.54121 5.98289C4.36837 8.15574 3.14767 11.1027 3.14767 14.1756C3.14767 17.2485 4.36837 20.1955 6.54121 22.3683C7.61709 23.4442 8.89435 24.2977 10.3001 24.8799C11.7058 25.4622 13.2124 25.7619 14.7339 25.7619C17.8068 25.7619 20.7538 24.5412 22.9267 22.3683C25.0995 20.1955 26.3202 17.2485 26.3202 14.1756C26.3202 12.6541 26.0205 11.1475 25.4382 9.74174C24.856 8.33603 24.0025 7.05878 22.9267 5.98289C21.8508 4.90701 20.5735 4.05357 19.1678 3.47131C17.7621 2.88904 16.2555 2.58936 14.7339 2.58936ZM14.7339 23.4446C9.62439 23.4446 5.46493 19.2852 5.46493 14.1756C5.46493 9.06607 9.62439 4.90661 14.7339 4.90661C19.8435 4.90661 24.0029 9.06607 24.0029 14.1756C24.0029 19.2852 19.8435 23.4446 14.7339 23.4446ZM14.7339 7.22386C13.5048 7.22386 12.326 7.71214 11.4568 8.58127C10.5877 9.45041 10.0994 10.6292 10.0994 11.8584H12.4167C12.4167 11.2438 12.6608 10.6544 13.0954 10.2198C13.53 9.78525 14.1194 9.54111 14.7339 9.54111C15.3485 9.54111 15.9379 9.78525 16.3725 10.2198C16.807 10.6544 17.0512 11.2438 17.0512 11.8584C17.0512 14.1756 13.5753 13.886 13.5753 17.6515H15.8926C15.8926 15.0446 19.3684 14.7549 19.3684 11.8584C19.3684 10.6292 18.8802 9.45041 18.011 8.58127C17.1419 7.71214 15.9631 7.22386 14.7339 7.22386Z" fill="#544C4C"/>
</svg>
