<svg width="118" height="115" viewBox="0 0 118 115" fill="none" xmlns="http://www.w3.org/2000/svg">
<g clip-path="url(#clip0_63_786)" filter="url(#filter0_d_63_786)">
<path d="M59 107C89.3757 107 114 83.0472 114 53.5C114 23.9528 89.3757 0 59 0C28.6243 0 4 23.9528 4 53.5C4 83.0472 28.6243 107 59 107Z" fill="#F8561A"/>
<path d="M59.0002 92.4252C81.1008 92.4252 99.0168 74.9978 99.0168 53.5C99.0168 32.0022 81.1008 14.5748 59.0002 14.5748C36.8997 14.5748 18.9837 32.0022 18.9837 53.5C18.9837 74.9978 36.8997 92.4252 59.0002 92.4252Z" fill="white"/>
<path d="M75.5791 55.0296C75.5753 55.037 75.5715 55.0481 75.5677 55.0517C75.5563 55.0665 75.545 55.0812 75.526 55.0923C75.2911 55.1255 75.0599 55.1734 74.8212 55.1439C72.1837 55.3024 69.6259 55.789 67.1779 56.7805C66.9126 56.869 66.6587 56.9869 66.4086 57.0975C66.3707 57.1307 66.3291 57.1602 66.2912 57.1934C66.3101 57.2044 66.3291 57.2155 66.348 57.2265C66.3215 57.2376 66.2949 57.2487 66.2684 57.2523C66.0411 57.2818 65.8971 57.1307 65.7417 57.0201C63.7522 55.5936 61.884 54.0307 60.1068 52.3572C58.1514 50.5178 56.2681 48.6084 54.5174 46.5848H54.5136V46.5811C54.3241 46.3636 54.1346 46.1461 53.9489 45.925C52.8348 44.598 51.8079 43.2046 50.8795 41.7449C50.7014 41.4611 50.5005 41.2326 50.1974 41.0925C49.1856 39.5923 48.4694 37.9704 48.0942 36.2121C48.0071 35.803 48.1473 35.4122 48.1738 35.0104C48.5149 33.8014 49.5115 33.1748 50.925 33.2927C51.6563 33.3517 52.3498 33.5213 53.0205 33.7498H53.0243C54.362 34.3469 55.6731 34.9994 56.9615 35.7071C63.9455 39.537 70.0654 44.9629 74.0595 52.0181C74.3058 52.4494 74.5408 52.888 74.7681 53.3303C74.7681 53.334 74.7719 53.334 74.7719 53.334C74.8553 53.5183 74.9462 53.6953 75.041 53.8722C75.2229 54.2592 75.401 54.6426 75.5791 55.0296Z" fill="#5D939C"/>
<path d="M56.8174 35.615C56.878 35.6482 56.9235 35.6814 56.9538 35.7182C55.6692 35.0105 54.3542 34.3581 53.0165 33.7609C53.7252 34.0042 54.4035 34.3175 55.0742 34.653C55.6691 34.9479 56.2376 35.2907 56.8174 35.615Z" fill="#12104B"/>
<path d="M74.4652 52.5673C74.5485 52.8327 74.6471 53.0908 74.7607 53.3414C74.5334 52.8991 74.2946 52.4604 74.0521 52.0292C74.1885 52.2061 74.3287 52.3867 74.4652 52.5673Z" fill="#12104B"/>
<path d="M75.5789 55.0297C75.4046 54.6427 75.2227 54.2556 75.037 53.8796C75.1621 54.1119 75.2909 54.3367 75.4312 54.5616C75.5638 54.7938 75.6206 54.9375 75.5789 55.0297Z" fill="#12104B"/>
<path d="M74.7644 53.3451C74.8554 53.522 74.9463 53.7026 75.0335 53.8833C74.9387 53.7026 74.8478 53.5257 74.7644 53.3451Z" fill="#12104B"/>
<path d="M75.5925 55.066L75.5674 55.0551C75.5746 55.0478 75.5782 55.0405 75.5782 55.0332C75.5818 55.0405 75.5854 55.0551 75.5925 55.066Z" fill="#12104B"/>
<path d="M48.166 35.0179C48.1357 36.8757 48.886 38.5049 49.7424 40.1047C49.9167 40.4328 50.0986 40.7571 50.2767 41.0815C50.6974 42.191 51.4704 43.0941 52.1563 44.0414C53.5243 45.9361 55.1121 47.6538 56.7188 49.3605C59.2009 51.996 61.8611 54.4362 64.76 56.6332C66.3932 57.8717 68.1061 58.9996 69.9402 59.9433C70.2206 60.087 70.6336 60.1865 70.6412 60.5367C70.6488 60.8648 70.2433 60.9533 69.9856 61.1044C68.9322 61.7273 67.8787 62.3577 66.8025 62.9437C66.5372 63.0875 66.2909 63.2902 65.9575 63.2644C63.8505 62.0407 61.8649 60.651 60.0042 59.0955C59.1402 58.373 58.2649 57.6579 57.4426 56.8838C56.2565 55.7669 55.0704 54.6574 53.9373 53.4889C50.8755 50.3189 48.0713 46.9571 45.665 43.2858C45.4338 42.9319 45.2785 42.5707 45.4793 42.1505C46.3774 39.7766 47.2717 37.3991 48.166 35.0179Z" fill="#12104B"/>
<path d="M40.7845 54.7568C41.5538 52.7073 42.323 50.6615 43.0923 48.612C43.3234 48.1697 43.422 48.1623 43.7289 48.5936C44.6194 49.8358 45.544 51.0522 46.5445 52.2133C47.219 52.9948 47.9238 53.7504 48.5945 54.5356C48.7878 55.306 49.4396 55.7594 49.9436 56.2939C52.2324 58.723 54.6804 60.9899 57.405 62.962C58.5722 63.8061 59.8151 64.5249 61.0694 65.229C61.1641 65.2806 61.2551 65.3395 61.3309 65.4169C61.5203 65.6455 61.3763 65.8114 61.2248 65.9735C60.3342 66.5891 59.3566 67.0573 58.4092 67.5733C57.4618 68.093 56.5107 68.6128 55.5482 69.103C55.4042 69.1768 55.2678 69.2763 55.0897 69.2247C52.7326 67.5106 50.5272 65.6307 48.4278 63.6218C45.7904 61.0895 43.3196 58.417 41.0611 55.564C40.8717 55.3318 40.6367 55.1032 40.7845 54.7568Z" fill="#12104B"/>
<path d="M48.5376 54.5688C47.5675 53.4887 46.5671 52.4308 45.6349 51.3176C44.9073 50.4514 44.2366 49.5336 43.5962 48.6047C43.3498 48.2508 43.2551 48.3946 43.0922 48.612C43.4143 47.7237 43.7326 46.8316 44.0547 45.9433C44.4867 44.7527 44.9187 43.5658 45.3507 42.3752C45.381 42.2977 45.4378 42.2277 45.4833 42.154C45.5894 42.5152 45.6046 42.9391 45.813 43.2303C47.1658 45.1213 48.4618 47.0565 49.9624 48.8332C51.8079 51.0191 53.7594 53.1312 55.7944 55.1512C58.3409 57.6798 61.0958 59.991 64.1122 61.9926C64.6048 62.3206 65.1278 62.6045 65.628 62.9178C65.7568 62.9989 65.8629 63.1168 65.9804 63.2163C66.0297 63.4338 65.8364 63.4781 65.7076 63.5518C64.7375 64.1047 63.7484 64.6318 62.7859 65.1921C62.407 65.4133 62.0659 65.4096 61.6642 65.2142C59.2238 64.0347 57.0638 62.4681 54.9986 60.7577C52.8955 59.0142 50.9894 57.0827 49.1629 55.0738C48.9772 54.8747 48.765 54.7125 48.5376 54.5688Z" fill="#F8561A"/>
<path d="M48.5376 54.5689C48.7309 54.6611 48.9734 54.709 49.1136 54.8528C50.421 56.1724 51.6639 57.5547 53.0167 58.8264C55.6277 61.285 58.4318 63.5077 61.7059 65.1112C62.0735 65.2918 62.3501 65.2991 62.7025 65.0927C63.7825 64.4513 64.8853 63.8468 65.9766 63.2239C67.4318 62.3982 68.8831 61.5688 70.3421 60.7505C70.668 60.5662 70.6149 60.4741 70.3231 60.3045C69.0461 59.5673 67.7198 58.889 66.5299 58.0339C64.6693 56.6921 62.8617 55.2767 61.1148 53.7985C58.4887 51.5684 56.1089 49.0914 53.911 46.4632C52.6454 44.9482 51.5426 43.3079 50.3869 41.7118C50.2732 41.557 50.3073 41.299 50.2732 41.0889C50.4589 41.2031 50.709 41.2769 50.8151 41.4427C52.2626 43.6802 53.8618 45.7997 55.7262 47.7238C57.4011 49.4526 59.0382 51.2256 60.8154 52.8475C62.4828 54.3699 64.3169 55.719 66.0789 57.1418C66.1282 57.1824 66.2116 57.1861 66.2798 57.2082C66.8709 57.4588 67.3332 57.927 67.9471 58.1371C69.084 59.0291 70.3989 59.6336 71.6987 60.2492C72.6574 60.7026 73.6578 61.0823 74.681 61.3882C75.5905 61.6647 76.3408 61.3218 76.5833 60.4261C76.8978 59.2613 76.697 58.1223 76.2233 57.0202C76.1702 56.8912 75.958 56.788 76.1475 56.611C76.4393 56.5189 76.697 56.5668 76.9054 56.7916C77.0759 57.7242 77.3563 58.6531 77.3942 59.5894C77.4549 61.0196 76.8031 61.6757 75.4389 62.2213C73.8321 62.8663 72.2823 63.6478 70.7096 64.3739C69.9214 64.7389 69.1408 65.1112 68.3564 65.4798C68.148 65.6051 67.9206 65.6899 67.7008 65.7857C67.2271 65.9958 66.7535 66.2059 66.2798 66.4197C66.0297 66.534 65.7644 66.6151 65.5295 66.7552C64.3623 67.3118 63.1952 67.8684 62.028 68.425C61.7817 68.5503 61.5202 68.6314 61.2777 68.7604C60.8078 68.9705 60.3341 69.1843 59.8643 69.3944C59.6293 69.4718 59.4019 69.5566 59.2011 69.704C58.9093 69.8441 58.6137 69.9842 58.322 70.1243C58.0756 70.2459 57.8142 70.327 57.5716 70.4597C55.3889 71.4807 53.2062 72.4981 51.0235 73.5191C50.7999 73.615 50.5725 73.7071 50.3603 73.8288C49.0226 74.437 47.685 75.0452 46.3511 75.6534C46.1161 75.7308 45.8926 75.8193 45.6879 75.9593C43.8728 76.8071 42.0577 77.6586 40.2425 78.5064C40.0682 78.5986 39.8674 78.6318 39.6892 78.7129C38.5562 79.0851 37.4383 79.5164 36.2105 79.4611C35.8505 79.4464 35.4792 79.4243 35.1381 79.3284C34.9524 79.2768 34.8122 79.063 34.6531 78.9193C34.7478 78.6354 35.0017 78.6797 35.195 78.7202C35.608 78.8087 35.9756 78.6981 36.3621 78.5802C37.624 78.1894 38.8404 77.6955 40.0341 77.15C40.4737 76.9509 40.4775 76.9067 40.0871 76.6007C39.9469 76.4901 39.7916 76.398 39.6741 76.2616C39.4922 76.0515 39.4126 75.834 39.6627 75.6165C39.9015 75.5133 40.0796 75.6423 40.2615 75.7603C40.4396 75.8782 40.6177 76.0036 40.7844 76.14C41.2012 76.4828 41.6105 76.4754 42.0766 76.2063C43.149 75.5907 44.2442 75.001 45.3279 74.4038C46.8475 73.5523 48.3709 72.7045 49.9056 71.8825C50.4247 71.6024 50.4172 71.5729 49.8904 71.2633C47.9578 70.1206 46.2943 68.6682 44.7823 67.0427C44.5966 66.8436 44.3919 66.6335 44.7103 66.3755C45.0286 66.2391 45.2143 66.4345 45.4075 66.6335C46.5557 67.8168 47.8062 68.8894 49.1477 69.8662C49.6441 70.2275 50.1784 70.526 50.7052 70.8357C51.0652 71.0495 51.4062 71.0642 51.7776 70.8541C52.6757 70.3528 53.5776 69.8625 54.4946 69.3981C54.6879 69.3023 54.8584 69.1622 55.0933 69.1695C56.7266 68.2996 58.3636 67.4297 59.9969 66.5561C60.3948 66.3423 60.7813 66.1175 61.1754 65.9C61.2815 65.7747 61.6491 65.712 61.2815 65.4761C58.7653 64.197 56.4613 62.6157 54.3999 60.7284C52.5355 59.018 50.762 57.2119 48.9696 55.4278C48.7498 55.2066 48.6778 54.8564 48.5376 54.5689Z" fill="#44A798"/>
<path d="M55.0896 69.1658C53.9111 69.8146 52.7363 70.4781 51.5427 71.0937C51.3683 71.1821 51.0462 71.1305 50.8492 71.0347C49.1894 70.209 47.7873 69.0405 46.4383 67.8094C46.029 67.4371 45.6576 67.0205 45.2446 66.6556C45.1044 66.534 44.8808 66.5008 44.6951 66.4271C44.392 66.4492 44.2593 66.2022 44.0888 66.0363C42.3116 64.3555 40.595 62.6193 39.0148 60.7579C38.8973 60.6215 38.7609 60.5109 38.632 60.3856C39.3482 58.5093 40.0682 56.6331 40.7844 54.7569C41.1672 55.3209 41.493 55.9364 41.944 56.4414C43.8993 58.631 45.8206 60.8574 47.8934 62.94C49.9511 65.0116 52.1641 66.9394 54.5515 68.6645C54.7485 68.8083 54.9115 69 55.0896 69.1658Z" fill="#F8561A"/>
<path d="M38.6318 60.3856C38.897 60.5994 39.185 60.7873 39.42 61.0269C41.1858 62.8221 42.9404 64.6246 44.6949 66.4234C44.7441 66.5929 44.7441 66.8067 44.854 66.921C46.4266 68.5945 48.1395 70.1058 50.163 71.2558C50.7125 71.5692 50.7087 71.5802 50.1365 71.8862C48.5563 72.745 46.9761 73.6039 45.3921 74.4627C44.926 74.2748 44.6077 73.8914 44.2477 73.5781C42.0764 71.6797 39.9618 69.7224 38.0292 67.5845C37.6958 67.2122 37.385 66.8104 37.0099 66.486C36.5627 66.1027 36.5097 65.7046 36.7522 65.2217C36.8015 65.1259 36.8015 65.0153 36.8697 64.9305C36.9454 64.7204 37.0212 64.5103 37.097 64.3002C37.2297 64.0237 37.2789 63.7178 37.4267 63.445C37.8246 62.4313 38.2263 61.4103 38.6318 60.3856Z" fill="#12104B"/>
<path d="M70.645 47.558C70.5844 47.8123 70.5503 48.0777 70.4632 48.3247C70.1714 49.1393 69.2884 49.6701 68.2766 49.5005C67.1663 49.3125 66.0788 48.9882 64.9798 48.7228C64.7032 48.579 64.3887 48.5311 64.1045 48.4058C63.4148 48.1404 62.7213 47.8897 62.043 47.6096C61.539 47.4031 61.3571 47.0124 61.5239 46.6033C61.6754 46.2273 62.0923 46.0467 62.5697 46.1941C62.9108 46.301 63.2367 46.4595 63.5702 46.5959C63.7407 46.7065 63.9415 46.736 64.1272 46.806C65.3664 47.1857 66.6093 47.5616 67.8522 47.9376C67.9204 47.9597 67.9924 47.9671 68.0644 47.9745C68.9701 48.0814 69.1861 47.8786 68.9587 47.0235C68.7655 46.2936 68.4851 45.5859 68.2425 44.8671C68.1971 44.7786 68.0834 44.716 68.144 44.5943C67.9053 43.6212 67.6324 42.6518 67.4505 41.6676C67.371 41.2289 67.4202 40.7461 67.515 40.3074C67.7802 39.1057 68.9474 38.4717 70.3798 38.8514C71.6871 39.1979 72.9415 39.725 74.2374 40.1194C74.8513 40.3074 75.5031 40.4143 76.1435 40.4696C76.712 40.5175 76.9317 40.2927 76.8559 39.7361C76.7764 39.1463 76.5907 38.5713 76.424 37.9962C76.0261 36.6434 75.4917 35.3201 75.2303 33.9452C74.9385 32.386 75.8821 31.4018 77.5229 31.3649C78.1292 31.3502 78.7507 31.4645 79.3494 31.5787C79.7738 31.6598 79.986 31.9916 79.9216 32.4155C79.8572 32.8394 79.5806 33.0827 79.1296 33.0458C78.6976 33.0089 78.2694 32.9205 77.8374 32.8762C76.981 32.7915 76.6096 33.0716 76.784 33.8789C77.0151 34.9589 77.4282 36.002 77.7427 37.0673C77.9814 37.8783 78.3111 38.6855 78.3831 39.5112C78.5422 41.3211 77.3221 42.3642 75.4918 41.9809C74.2943 41.7302 73.1423 41.2842 71.9676 40.9304C71.2589 40.7166 70.5579 40.477 69.8379 40.3222C69.2392 40.1931 68.9588 40.3738 69.0156 40.9672C69.1027 41.9035 69.3036 42.8398 69.5385 43.7539C69.8644 45.033 70.2699 46.2936 70.645 47.558Z" fill="#FE5284"/>
<path d="M36.8699 64.9417C36.3773 65.8079 36.9912 66.3461 37.5179 66.8695C39.5187 68.8489 41.5347 70.8136 43.5545 72.7746C44.1532 73.3533 44.7785 73.9062 45.3924 74.4702C44.1722 75.1485 42.9482 75.823 41.728 76.5049C41.3149 76.7372 41.0497 76.4386 40.7503 76.2727C40.3979 76.0774 40.0492 75.8746 39.7006 75.6756C39.3861 75.7677 39.2383 75.5208 39.0678 75.3586C37.7794 74.1164 36.4872 72.8741 35.2215 71.6098C34.9487 71.337 34.7251 71.1527 34.3461 71.3886C34.8577 70.0543 35.3617 68.7199 35.8809 67.3892C36.203 66.5672 36.5402 65.7563 36.8699 64.9417Z" fill="#F8561A"/>
<path d="M90.3805 62.2985C90.0697 62.5897 89.6074 62.5528 89.2247 62.1953C86.5418 59.674 83.4003 57.9673 79.7511 57.1822C78.8189 56.9831 77.8563 56.9168 76.909 56.7915C76.6513 56.773 76.3936 56.7546 76.1397 56.7362C75.4501 56.9241 74.7376 56.8504 74.0366 56.8983C72.1381 57.0347 70.3191 57.466 68.5305 58.0632C68.3259 58.1295 68.1364 58.2511 67.9053 58.1959C67.3823 57.8715 66.8632 57.5545 66.3402 57.2338C66.3213 57.2227 66.3023 57.2117 66.2834 57.2006C66.3213 57.1674 66.363 57.1343 66.4009 57.1048C66.6548 56.9905 66.9086 56.8762 67.1701 56.7878C69.6181 55.7925 72.176 55.3096 74.8134 55.1511C75.0522 55.1769 75.2833 55.129 75.5183 55.0995C75.7267 55.07 75.9313 55.0516 76.1435 55.1069C76.8749 55.2027 77.6062 55.2986 78.3376 55.3944C82.0892 55.881 85.4504 57.2817 88.4365 59.5265C89.0958 60.0205 89.7059 60.5808 90.3123 61.13C90.695 61.4728 90.7026 61.9962 90.3805 62.2985Z" fill="#F8C161"/>
<path d="M34.3499 71.3847C34.4522 71.2447 34.5507 71.1083 34.7856 70.7876C34.888 70.9682 34.9524 71.1673 35.085 71.3C36.4454 72.638 37.8172 73.9687 39.1928 75.292C39.3443 75.4358 39.53 75.5463 39.7006 75.6717C39.4656 75.9924 39.7233 76.1546 39.9317 76.3167C40.7578 76.9581 40.7768 76.9913 39.7915 77.3931C38.5637 77.8981 37.3094 78.3515 36.0551 78.8012C35.8202 78.886 35.5322 78.8233 35.2707 78.8417C35.0661 78.8565 34.8576 78.8896 34.653 78.9118C33.4214 78.263 33.232 77.124 33.3494 75.9592C33.4707 74.7465 33.7966 73.5522 34.0315 72.3468C34.1339 72.1072 34.1642 71.8492 34.2475 71.6059C34.2854 71.5396 34.3158 71.4622 34.3499 71.3847Z" fill="#12104B"/>
<path d="M58.1516 37.3659C57.6476 38.8293 56.9655 40.2042 56.0674 41.4796C55.7415 41.944 55.3019 42.0804 54.923 41.8482C54.5023 41.5902 54.4228 41.1405 54.76 40.6502C55.7074 39.279 56.4387 37.8082 56.8669 36.2048C56.9162 36.0242 57.0943 35.3422 57.1322 35.1874C57.6817 32.6772 57.6021 30.1891 56.8291 27.7268C56.776 27.5572 56.723 27.3913 56.6851 27.2181C56.5827 26.7389 56.7874 26.3666 57.227 26.2781C57.6779 26.186 58.0455 26.3482 58.144 26.8015C58.4472 28.1728 58.8337 29.5403 58.9739 30.9263C59.1558 32.7177 59.0042 34.5165 58.4926 36.2674C58.4509 36.4075 58.2311 37.1337 58.1516 37.3659Z" fill="#4281FE"/>
<path d="M88.6789 46.5037C88.6069 46.5995 88.5159 46.7802 88.3719 46.8944C87.5155 47.5616 87.3374 48.3652 87.7315 49.3494C87.7997 49.5263 87.6747 49.8802 87.5155 49.9981C87.3943 50.0903 86.9736 50.0202 86.8675 49.8839C86.1551 48.966 85.2797 48.8186 84.2111 49.1909C84.0406 49.2498 83.6692 49.1135 83.5859 48.966C83.5025 48.8149 83.5821 48.4352 83.7261 48.3283C84.6507 47.6464 84.8061 46.8133 84.4309 45.7886C84.3665 45.6117 84.5294 45.1914 84.6734 45.1435C84.8781 45.0809 85.2456 45.1914 85.3934 45.3536C85.8785 45.8881 86.4128 46.2641 87.1783 46.1572C87.4435 46.1203 87.6936 45.9987 87.9551 45.925C88.3303 45.8218 88.6827 46.0577 88.6789 46.5037Z" fill="#4281FE"/>
<path d="M40.5608 31.634C40.3713 31.7777 40.1932 32.021 39.9886 32.0505C38.8896 32.209 38.2644 32.7693 38.109 33.8604C38.0825 34.0557 37.7831 34.3469 37.6012 34.3506C37.4193 34.3543 37.0934 34.0741 37.0669 33.8898C36.9115 32.7766 36.2787 32.209 35.157 32.0431C34.9751 32.0173 34.7099 31.6819 34.7212 31.5049C34.7326 31.3317 35.0282 31.0847 35.2404 31.0331C36.3583 30.7677 36.8244 30.3881 36.9911 29.485C37.0593 29.109 37.1162 28.6998 37.6277 28.7183C38.0863 28.733 38.0825 29.1348 38.1772 29.4555C38.2606 29.7393 38.3174 30.1042 38.5258 30.2627C38.9351 30.576 39.4429 30.7677 39.9052 31.0184C40.1288 31.14 40.3448 31.2764 40.5646 31.4054C40.5608 31.4754 40.5608 31.5565 40.5608 31.634Z" fill="#F8C060"/>
<path d="M78.2997 71.3368C78.1405 71.2631 77.9511 71.2226 77.8298 71.112C77.3296 70.6512 76.837 70.1831 76.3671 69.6965C76.0374 69.3537 76.0222 68.9741 76.3822 68.6239C76.8408 68.1742 77.3031 67.7282 77.7654 67.2784C78.1102 66.943 78.4967 66.9541 78.8302 67.249C79.3532 67.7097 79.8496 68.2 80.327 68.705C80.5923 68.9814 80.6037 69.3427 80.3422 69.6191C79.842 70.1499 79.3039 70.6512 78.7658 71.1452C78.6597 71.2447 78.4778 71.2668 78.2997 71.3368Z" fill="#4281FE"/>
<path d="M73.3849 17.9401C73.2144 17.8517 73.0136 17.7927 72.8772 17.671C72.3883 17.2213 71.9222 16.7532 71.4485 16.2887C71.1037 15.9496 71.1151 15.5884 71.4372 15.2566C71.9108 14.7701 72.3997 14.2946 72.8999 13.8338C73.2296 13.5279 73.6085 13.561 73.9268 13.8449C74.4195 14.2872 74.8893 14.7553 75.3517 15.2272C75.651 15.5368 75.6927 15.9165 75.3971 16.2335C74.9083 16.7569 74.3854 17.2434 73.8586 17.73C73.7487 17.8295 73.5706 17.859 73.3849 17.9401Z" fill="#FE5284"/>
<path d="M99.3769 31.317C99.6838 31.317 99.9946 31.3096 100.302 31.317C100.843 31.3317 101.112 31.564 101.131 32.0911C101.154 32.7067 101.154 33.3259 101.131 33.9415C101.116 34.4428 100.817 34.7193 100.305 34.7266C99.6725 34.7377 99.0359 34.7377 98.3992 34.7266C97.8839 34.7193 97.5921 34.4502 97.5769 33.9415C97.5542 33.3259 97.5618 32.7067 97.5731 32.0911C97.5845 31.564 97.8346 31.3391 98.3916 31.317C98.4106 31.317 98.4295 31.317 98.4447 31.317C98.7592 31.317 99.07 31.317 99.3769 31.317Z" fill="#F8C060"/>
<path d="M67.9091 30.8821C67.9015 31.8073 67.0906 32.5961 66.1394 32.6035C65.1542 32.6108 64.3357 31.8146 64.347 30.8563C64.3546 29.9568 65.2224 29.1275 66.1394 29.1385C67.0641 29.1459 67.9167 29.99 67.9091 30.8821Z" fill="#F8C060"/>
<path d="M56.0143 22.3302C56.7949 22.3339 57.3785 22.9126 57.3747 23.6756C57.3709 24.4571 56.8063 25.0026 56.003 24.9989C55.2337 24.9953 54.6274 24.4018 54.6312 23.6535C54.6312 22.9052 55.2413 22.3265 56.0143 22.3302Z" fill="#4281FE"/>
<path d="M82.7109 34.4318C82.0175 34.4207 81.4642 33.8825 81.4604 33.219C81.4566 32.5703 82.0932 31.9731 82.7715 31.9879C83.4309 32.0026 84.0296 32.5998 84.0183 33.2264C84.0069 33.9231 83.4423 34.4465 82.7109 34.4318Z" fill="#FE5384"/>
<path d="M92.0594 63.5556C92.7453 63.5593 93.3023 64.0938 93.3099 64.7647C93.3175 65.454 92.7453 66.0143 92.0404 66.0069C91.3242 65.9995 90.7785 65.4466 90.7975 64.7462C90.8126 64.0643 91.3621 63.5519 92.0594 63.5556Z" fill="#F8C161"/>
<path d="M76.1474 55.0998C75.704 55.1145 75.2606 55.1329 74.8173 55.1477C75.5221 55.0076 75.4842 55.026 75.1394 54.3515C74.8514 53.7838 74.3171 53.2899 74.4611 52.5637C74.8665 53.1129 75.2796 53.6511 75.6661 54.2114C75.8594 54.4916 75.9882 54.8049 76.1474 55.0998Z" fill="#19A1B9"/>
<path d="M37.4229 63.456C37.313 63.7398 37.2032 64.0273 37.0933 64.3112C37.2032 64.0237 37.313 63.7398 37.4229 63.456Z" fill="#D6EDCB"/>
<path d="M65.5371 66.7551C65.7872 66.6445 66.0373 66.5302 66.2874 66.4196C66.0373 66.5302 65.7872 66.6445 65.5371 66.7551Z" fill="#56BDD0"/>
<path d="M61.2852 68.7604C61.5353 68.6498 61.7854 68.5392 62.0355 68.4249C61.7854 68.5355 61.5353 68.6461 61.2852 68.7604Z" fill="#A4DBE5"/>
<path d="M57.5793 70.4559C57.8294 70.3453 58.0795 70.2348 58.3297 70.1205C58.0795 70.2348 57.8294 70.3453 57.5793 70.4559Z" fill="#71C7D7"/>
<path d="M67.7085 65.7856C67.9283 65.6824 68.1481 65.5829 68.3641 65.4797C68.1443 65.5829 67.9283 65.6824 67.7085 65.7856Z" fill="#B5E2EA"/>
<path d="M59.2088 69.704C59.4286 69.6008 59.6522 69.4976 59.872 69.3944C59.6484 69.4976 59.4286 69.6008 59.2088 69.704Z" fill="#52BBCF"/>
<path d="M34.2513 71.6133C34.1793 71.8603 34.1073 72.1073 34.0353 72.3542C34.1073 72.1073 34.1793 71.8603 34.2513 71.6133Z" fill="#CEE9BF"/>
<path d="M50.3677 73.825C50.5875 73.7217 50.8111 73.6185 51.0309 73.5153C50.8111 73.6185 50.5875 73.7217 50.3677 73.825Z" fill="#9BD8E2"/>
<path d="M45.6956 75.952C45.9154 75.8488 46.139 75.7493 46.3588 75.6461C46.1352 75.7493 45.9154 75.8525 45.6956 75.952Z" fill="#54BCCF"/>
<path d="M39.6929 78.709C39.8786 78.639 40.0604 78.569 40.2461 78.5026C40.0642 78.569 39.8786 78.639 39.6929 78.709Z" fill="#B7E2EA"/>
<path d="M64.1082 48.4056C64.3999 48.5125 64.6917 48.6157 64.9835 48.7226C64.6917 48.6194 64.3999 48.5125 64.1082 48.4056Z" fill="#B25E87"/>
<path d="M67.1739 56.7843C66.9162 56.8912 66.6585 56.9981 66.4046 57.105C66.6585 56.9981 66.9162 56.8912 67.1739 56.7843Z" fill="#488F82"/>
<path d="M64.1233 46.8022C63.9377 46.7322 63.752 46.6621 63.5663 46.5921C63.752 46.6621 63.9377 46.7322 64.1233 46.8022Z" fill="#B95D87"/>
<path d="M61.2776 65.4722C61.3724 65.5275 61.4709 65.5865 61.5656 65.6418C61.433 65.7266 61.3041 65.8114 61.1715 65.8961C61.2056 65.7561 61.2435 65.6123 61.2776 65.4722Z" fill="#4EB570"/>
<path d="M67.9052 58.1959C69.4361 57.4845 71.0656 57.0864 72.7368 56.8947C73.8622 56.7657 75.0028 56.7841 76.1359 56.7362C76.2193 56.8026 76.3481 56.8505 76.3784 56.9353C76.8142 58.1443 77.1098 59.3681 76.6702 60.6361C76.4011 61.4175 75.5713 61.7972 74.7603 61.5539C72.3464 60.8204 70.1145 59.7183 67.9924 58.3949C67.9431 58.3618 67.9355 58.2623 67.9052 58.1959Z" fill="#5D939C"/>
</g>
<defs>
<filter id="filter0_d_63_786" x="0" y="0" width="118" height="115" filterUnits="userSpaceOnUse" color-interpolation-filters="sRGB">
<feFlood flood-opacity="0" result="BackgroundImageFix"/>
<feColorMatrix in="SourceAlpha" type="matrix" values="0 0 0 0 0 0 0 0 0 0 0 0 0 0 0 0 0 0 127 0" result="hardAlpha"/>
<feOffset dy="4"/>
<feGaussianBlur stdDeviation="2"/>
<feComposite in2="hardAlpha" operator="out"/>
<feColorMatrix type="matrix" values="0 0 0 0 0 0 0 0 0 0 0 0 0 0 0 0 0 0 0.25 0"/>
<feBlend mode="normal" in2="BackgroundImageFix" result="effect1_dropShadow_63_786"/>
<feBlend mode="normal" in="SourceGraphic" in2="effect1_dropShadow_63_786" result="shape"/>
</filter>
<clipPath id="clip0_63_786">
<rect width="110" height="107" fill="white" transform="translate(4)"/>
</clipPath>
</defs>
</svg>
